# xmcd
#
# Track frame offsets:
#	150
#	11054
#	30106
#	43734
#	64253
#	83632
#	102570
#	120833
#	135160
#	154542
#	171796
#	189778
#	208830
#	228735
#	245580
#
# Disc length: 4332 seconds
#
# Revision: 0
# Processed by: cddbd v1.5.2PL0 Copyright (c) Steve Scherf et al.
# Submitted via: EasyCDDAExtractor 10.1.0.1
#
DISCID=b710ea0f
DTITLE=Various Artist - CBE529-
DYEAR=1900
DGENRE=Karaoke
TTITLE0=Tracy Byrd - Drinkin' Bone
TTITLE1=Toby Keith - I Love This Bar
TTITLE2=Terri Clark - I Wanna Do It All
TTITLE3=Keith Urban - Your Everything
TTITLE4=Martina McBride - This One's For The Girls
TTITLE5=Rascal Flatts - I Melt
TTITLE6=Alan Jackson and Jimmy Buffet - It's Five Oclock Somewhere
TTITLE7=Amy Dalley - Men Don't Change
TTITLE8=Mark Wills - And The Crowd Goes Wild
TTITLE9=Patty Loveless - Lovin' All Night
TTITLE10=Brad Paisley - Little Moments
TTITLE11=Julie Roberts - Breakdown Here
TTITLE12=Tim McGraw - Real Good Man
TTITLE13=Terri Clark - Girls Lie Too
TTITLE14=Lonestar - Let's Be Us Again
EXTD=
EXTT0=
EXTT1=
EXTT2=
EXTT3=
EXTT4=
EXTT5=
EXTT6=
EXTT7=
EXTT8=
EXTT9=
EXTT10=
EXTT11=
EXTT12=
EXTT13=
EXTT14=
PLAYORDER=
